G04 #@! TF.FileFunction,Copper,L1,Top,Signal*
%FSLAX46Y46*%
G04 Gerber Fmt 4.6, Leading zero omitted, Abs format (unit mm)*
G04 Created by KiCad (PCBNEW (2016-05-05 BZR 6775)-product) date Monday, 13 February 2017 'pmt' 19:42:56*
%MOMM*%
%LPD*%
G01*
G04 APERTURE LIST*
%ADD10C,0.100000*%
%ADD11R,2.000000X1.200000*%
%ADD12C,3.200000*%
%ADD13R,0.750000X0.300000*%
%ADD14R,0.300000X0.750000*%
%ADD15R,1.600000X1.600000*%
%ADD16R,1.500000X1.250000*%
%ADD17R,1.250000X1.500000*%
%ADD18R,1.198880X1.198880*%
%ADD19R,1.727200X2.032000*%
%ADD20O,1.727200X2.032000*%
%ADD21R,1.300000X1.500000*%
%ADD22R,1.500000X1.300000*%
%ADD23R,2.032000X2.032000*%
%ADD24O,2.032000X2.032000*%
%ADD25C,1.524000*%
%ADD26C,0.600000*%
%ADD27C,0.250000*%
%ADD28C,0.254000*%
G04 APERTURE END LIST*
D10*
D11*
X75350000Y-83000000D03*
X75350000Y-80500000D03*
X75350000Y-78500000D03*
X75350000Y-76000000D03*
D12*
X72750000Y-85350000D03*
X72750000Y-73650000D03*
D13*
X94075000Y-81125000D03*
X94075000Y-80475000D03*
X94075000Y-79825000D03*
X94075000Y-79175000D03*
X94075000Y-78525000D03*
X94075000Y-77875000D03*
D14*
X93375000Y-77175000D03*
X92725000Y-77175000D03*
X92075000Y-77175000D03*
X91425000Y-77175000D03*
X90775000Y-77175000D03*
X90125000Y-77175000D03*
D13*
X89425000Y-77875000D03*
X89425000Y-78525000D03*
X89425000Y-79175000D03*
X89425000Y-79825000D03*
X89425000Y-80475000D03*
X89425000Y-81125000D03*
D14*
X90125000Y-81825000D03*
X90775000Y-81825000D03*
X91425000Y-81825000D03*
X92075000Y-81825000D03*
X92725000Y-81825000D03*
X93375000Y-81825000D03*
D15*
X90950000Y-78700000D03*
X90950000Y-80300000D03*
X92550000Y-78700000D03*
X92550000Y-80300000D03*
D16*
X83000000Y-75500000D03*
X85500000Y-75500000D03*
X85500000Y-83500000D03*
X83000000Y-83500000D03*
D17*
X84250000Y-80750000D03*
X84250000Y-78250000D03*
D18*
X113250000Y-85250000D03*
X113250000Y-87348040D03*
X113250000Y-71700980D03*
X113250000Y-73799020D03*
D19*
X97940000Y-71880000D03*
D20*
X100480000Y-71880000D03*
X103020000Y-71880000D03*
X105560000Y-71880000D03*
D19*
X97940000Y-87000000D03*
D20*
X100480000Y-87000000D03*
X103020000Y-87000000D03*
X105560000Y-87000000D03*
D21*
X109500000Y-84650000D03*
X109500000Y-87350000D03*
X109500000Y-74600000D03*
X109500000Y-71900000D03*
D22*
X77900000Y-80500000D03*
X80600000Y-80500000D03*
X77900000Y-78500000D03*
X80600000Y-78500000D03*
D23*
X90320000Y-71880000D03*
D24*
X92860000Y-71880000D03*
D25*
X100480000Y-76960000D03*
X103020000Y-76960000D03*
X100480000Y-79500000D03*
X103020000Y-79500000D03*
X100480000Y-82040000D03*
X103020000Y-82040000D03*
D26*
X83462000Y-73150000D03*
X90950000Y-78700000D03*
X92084437Y-76034403D03*
X92500000Y-83000000D03*
X88175000Y-79825000D03*
X88802962Y-76545976D03*
X95475000Y-80475000D03*
X82090535Y-80554704D03*
X88258161Y-80633010D03*
X82719658Y-81292714D03*
X87780000Y-81278000D03*
X93368000Y-74928000D03*
X94099892Y-76983499D03*
X96431670Y-76661753D03*
X96423914Y-75758886D03*
X93009918Y-75756330D03*
X96107119Y-82401454D03*
X94638000Y-83056000D03*
X96443219Y-83346735D03*
X94892000Y-83818000D03*
D27*
X83462000Y-74163000D02*
X83462000Y-73150000D01*
X83000000Y-75500000D02*
X83000000Y-74625000D01*
X83000000Y-74625000D02*
X83462000Y-74163000D01*
X91425000Y-81825000D02*
X91425000Y-80775000D01*
X91425000Y-80775000D02*
X90950000Y-80300000D01*
X90950000Y-80300000D02*
X90950000Y-78700000D01*
X83000000Y-75500000D02*
X83000000Y-77875000D01*
X83000000Y-77875000D02*
X83375000Y-78250000D01*
X83375000Y-78250000D02*
X84250000Y-78250000D01*
X85500000Y-75500000D02*
X85625000Y-75500000D01*
X85625000Y-75500000D02*
X88650000Y-78525000D01*
X88650000Y-78525000D02*
X88800000Y-78525000D01*
X88800000Y-78525000D02*
X89425000Y-78525000D01*
X105560000Y-87000000D02*
X105560000Y-86847600D01*
X105560000Y-86847600D02*
X103291893Y-84579493D01*
X103291893Y-84579493D02*
X94079493Y-84579493D01*
X92799999Y-83299999D02*
X92500000Y-83000000D01*
X94079493Y-84579493D02*
X92799999Y-83299999D01*
X92075000Y-76043840D02*
X92084437Y-76034403D01*
X92075000Y-77175000D02*
X92075000Y-76043840D01*
X92075000Y-81825000D02*
X92075000Y-82575000D01*
X92075000Y-82575000D02*
X92500000Y-83000000D01*
X87671220Y-79825000D02*
X88175000Y-79825000D01*
X89425000Y-79825000D02*
X88175000Y-79825000D01*
X87671220Y-79825000D02*
X87154999Y-80341221D01*
X85625000Y-83500000D02*
X85500000Y-83500000D01*
X87154999Y-80341221D02*
X87154999Y-81470002D01*
X87154999Y-81470002D02*
X86585000Y-82040000D01*
X86585000Y-82040000D02*
X86585000Y-82540000D01*
X86585000Y-82540000D02*
X85625000Y-83500000D01*
X89425000Y-77875000D02*
X89425000Y-77181986D01*
X89425000Y-77181986D02*
X89431986Y-77175000D01*
X90125000Y-77175000D02*
X89431986Y-77175000D01*
X89431986Y-77175000D02*
X88802962Y-76545976D01*
X94075000Y-80475000D02*
X95475000Y-80475000D01*
X113250000Y-85250000D02*
X114069885Y-85250000D01*
X114069885Y-85250000D02*
X114384586Y-84935299D01*
X114384586Y-72119694D02*
X113965872Y-71700980D01*
X114384586Y-84935299D02*
X114384586Y-72119694D01*
X113965872Y-71700980D02*
X113250000Y-71700980D01*
X113250000Y-85250000D02*
X111832125Y-85250000D01*
X111832125Y-85250000D02*
X111093903Y-85988222D01*
X111093903Y-85988222D02*
X108053415Y-85988222D01*
X108053415Y-85988222D02*
X107041637Y-87000000D01*
X107041637Y-87000000D02*
X105560000Y-87000000D01*
X113250000Y-71700980D02*
X112400560Y-71700980D01*
X112400560Y-71700980D02*
X111366862Y-70667282D01*
X111366862Y-70667282D02*
X107886318Y-70667282D01*
X107886318Y-70667282D02*
X106673600Y-71880000D01*
X106673600Y-71880000D02*
X105560000Y-71880000D01*
X84250000Y-80750000D02*
X84250000Y-80875000D01*
X84250000Y-80875000D02*
X83062103Y-82062897D01*
X83062103Y-82062897D02*
X77839651Y-82062897D01*
X77839651Y-82062897D02*
X76902548Y-83000000D01*
X76902548Y-83000000D02*
X76600000Y-83000000D01*
X76600000Y-83000000D02*
X75350000Y-83000000D01*
X84250000Y-80750000D02*
X85125000Y-80750000D01*
X85125000Y-80750000D02*
X86700000Y-79175000D01*
X86700000Y-79175000D02*
X88800000Y-79175000D01*
X88800000Y-79175000D02*
X89425000Y-79175000D01*
X100480000Y-71880000D02*
X100480000Y-72032400D01*
X100480000Y-72032400D02*
X99120734Y-73391666D01*
X99120734Y-73391666D02*
X92990021Y-73391666D01*
X90775000Y-76550000D02*
X90775000Y-77175000D01*
X92990021Y-73391666D02*
X90775000Y-75606687D01*
X90775000Y-75606687D02*
X90775000Y-76550000D01*
X103020000Y-71880000D02*
X103020000Y-72032400D01*
X103020000Y-72032400D02*
X101210723Y-73841677D01*
X101210723Y-73841677D02*
X93245441Y-73841677D01*
X93245441Y-73841677D02*
X91425000Y-75662118D01*
X91425000Y-76550000D02*
X91425000Y-77175000D01*
X91425000Y-75662118D02*
X91425000Y-76550000D01*
X92750455Y-85479515D02*
X90125000Y-82854060D01*
X90125000Y-82854060D02*
X90125000Y-82450000D01*
X90125000Y-82450000D02*
X90125000Y-81825000D01*
X100480000Y-87000000D02*
X100480000Y-86847600D01*
X100480000Y-86847600D02*
X99111915Y-85479515D01*
X99111915Y-85479515D02*
X92750455Y-85479515D01*
X101201904Y-85029504D02*
X92936855Y-85029504D01*
X92936855Y-85029504D02*
X90775000Y-82867649D01*
X90775000Y-82867649D02*
X90775000Y-82450000D01*
X90775000Y-82450000D02*
X90775000Y-81825000D01*
X103020000Y-87000000D02*
X103020000Y-86847600D01*
X103020000Y-86847600D02*
X101201904Y-85029504D01*
X75350000Y-80500000D02*
X77900000Y-80500000D01*
X75350000Y-78500000D02*
X77900000Y-78500000D01*
X94075000Y-81525000D02*
X94075000Y-81125000D01*
X108079482Y-84129482D02*
X96069893Y-84129482D01*
X108600000Y-84650000D02*
X108079482Y-84129482D01*
X96069893Y-84129482D02*
X95608154Y-83667743D01*
X109500000Y-84650000D02*
X108600000Y-84650000D01*
X95608154Y-83058154D02*
X94075000Y-81525000D01*
X95608154Y-83667743D02*
X95608154Y-83058154D01*
X109500000Y-87350000D02*
X113248040Y-87350000D01*
X113248040Y-87350000D02*
X113250000Y-87348040D01*
X109500000Y-74600000D02*
X112449020Y-74600000D01*
X112449020Y-74600000D02*
X113250000Y-73799020D01*
X109500000Y-71900000D02*
X108110666Y-71900000D01*
X105718978Y-74291688D02*
X95979615Y-74291688D01*
X108110666Y-71900000D02*
X105718978Y-74291688D01*
X95979615Y-74291688D02*
X94938274Y-75333029D01*
X94700000Y-78525000D02*
X94075000Y-78525000D01*
X94938274Y-75333029D02*
X94938274Y-78286726D01*
X94938274Y-78286726D02*
X94700000Y-78525000D01*
X82035831Y-80500000D02*
X82090535Y-80554704D01*
X80600000Y-80500000D02*
X82035831Y-80500000D01*
X88416171Y-80475000D02*
X88258161Y-80633010D01*
X89425000Y-80475000D02*
X88416171Y-80475000D01*
X82719658Y-80868450D02*
X82719658Y-81292714D01*
X82719658Y-79619658D02*
X82719658Y-80868450D01*
X81600000Y-78500000D02*
X82719658Y-79619658D01*
X80600000Y-78500000D02*
X81600000Y-78500000D01*
X88647000Y-81278000D02*
X88204264Y-81278000D01*
X88204264Y-81278000D02*
X87780000Y-81278000D01*
X88800000Y-81125000D02*
X88647000Y-81278000D01*
X89425000Y-81125000D02*
X88800000Y-81125000D01*
X93375000Y-77175000D02*
X93375000Y-76550000D01*
X93375000Y-76550000D02*
X93667999Y-76257001D01*
X93667999Y-76257001D02*
X93667999Y-75227999D01*
X93667999Y-75227999D02*
X93368000Y-74928000D01*
X94075000Y-77008391D02*
X94099892Y-76983499D01*
X94075000Y-77875000D02*
X94075000Y-77008391D01*
X96729917Y-76960000D02*
X96431670Y-76661753D01*
X100480000Y-76960000D02*
X96729917Y-76960000D01*
X101818886Y-75758886D02*
X96848178Y-75758886D01*
X103020000Y-76960000D02*
X101818886Y-75758886D01*
X96848178Y-75758886D02*
X96423914Y-75758886D01*
X92725000Y-76041248D02*
X93009918Y-75756330D01*
X92725000Y-77175000D02*
X92725000Y-76041248D01*
X94075000Y-79825000D02*
X100155000Y-79825000D01*
X100155000Y-79825000D02*
X100480000Y-79500000D01*
X94075000Y-79175000D02*
X94942433Y-79175000D01*
X94942433Y-79175000D02*
X95847102Y-78270331D01*
X95847102Y-78270331D02*
X101790331Y-78270331D01*
X101790331Y-78270331D02*
X102258001Y-78738001D01*
X102258001Y-78738001D02*
X103020000Y-79500000D01*
X96407118Y-82101455D02*
X96107119Y-82401454D01*
X96468573Y-82040000D02*
X96407118Y-82101455D01*
X100480000Y-82040000D02*
X96468573Y-82040000D01*
X93375000Y-81825000D02*
X93407000Y-81825000D01*
X93407000Y-81825000D02*
X94638000Y-83056000D01*
X101713265Y-83346735D02*
X96867483Y-83346735D01*
X96867483Y-83346735D02*
X96443219Y-83346735D01*
X103020000Y-82040000D02*
X101713265Y-83346735D01*
X92725000Y-81825000D02*
X92725000Y-82285002D01*
X92725000Y-82285002D02*
X94257998Y-83818000D01*
X94257998Y-83818000D02*
X94892000Y-83818000D01*
D28*
G36*
X88656560Y-70864000D02*
X88656560Y-72896000D01*
X88705843Y-73143765D01*
X88846191Y-73353809D01*
X89056235Y-73494157D01*
X89304000Y-73543440D01*
X91336000Y-73543440D01*
X91583765Y-73494157D01*
X91793809Y-73353809D01*
X91898662Y-73196887D01*
X91995182Y-73286385D01*
X92013085Y-73293800D01*
X90237599Y-75069286D01*
X90072852Y-75315848D01*
X90015000Y-75606687D01*
X90015000Y-76152560D01*
X89975000Y-76152560D01*
X89727235Y-76201843D01*
X89684296Y-76230534D01*
X89596079Y-76017033D01*
X89333289Y-75753784D01*
X88989761Y-75611138D01*
X88617795Y-75610814D01*
X88274019Y-75752859D01*
X88010770Y-76015649D01*
X87868124Y-76359177D01*
X87867855Y-76668053D01*
X86897440Y-75697638D01*
X86897440Y-74875000D01*
X86848157Y-74627235D01*
X86707809Y-74417191D01*
X86497765Y-74276843D01*
X86250000Y-74227560D01*
X84750000Y-74227560D01*
X84502235Y-74276843D01*
X84292191Y-74417191D01*
X84251346Y-74478320D01*
X84109698Y-74336673D01*
X83876309Y-74240000D01*
X83285750Y-74240000D01*
X83127000Y-74398750D01*
X83127000Y-75373000D01*
X83147000Y-75373000D01*
X83147000Y-75627000D01*
X83127000Y-75627000D01*
X83127000Y-76601250D01*
X83285750Y-76760000D01*
X83876309Y-76760000D01*
X84109698Y-76663327D01*
X84251346Y-76521680D01*
X84292191Y-76582809D01*
X84502235Y-76723157D01*
X84750000Y-76772440D01*
X85822638Y-76772440D01*
X87465198Y-78415000D01*
X86700000Y-78415000D01*
X86409160Y-78472852D01*
X86162599Y-78637599D01*
X85287969Y-79512229D01*
X85271680Y-79501346D01*
X85413327Y-79359698D01*
X85510000Y-79126309D01*
X85510000Y-78535750D01*
X85351250Y-78377000D01*
X84377000Y-78377000D01*
X84377000Y-78397000D01*
X84123000Y-78397000D01*
X84123000Y-78377000D01*
X83148750Y-78377000D01*
X82990000Y-78535750D01*
X82990000Y-78815198D01*
X82137401Y-77962599D01*
X81997440Y-77869080D01*
X81997440Y-77850000D01*
X81948157Y-77602235D01*
X81807809Y-77392191D01*
X81780123Y-77373691D01*
X82990000Y-77373691D01*
X82990000Y-77964250D01*
X83148750Y-78123000D01*
X84123000Y-78123000D01*
X84123000Y-77023750D01*
X84377000Y-77023750D01*
X84377000Y-78123000D01*
X85351250Y-78123000D01*
X85510000Y-77964250D01*
X85510000Y-77373691D01*
X85413327Y-77140302D01*
X85234699Y-76961673D01*
X85001310Y-76865000D01*
X84535750Y-76865000D01*
X84377000Y-77023750D01*
X84123000Y-77023750D01*
X83964250Y-76865000D01*
X83498690Y-76865000D01*
X83265301Y-76961673D01*
X83086673Y-77140302D01*
X82990000Y-77373691D01*
X81780123Y-77373691D01*
X81597765Y-77251843D01*
X81350000Y-77202560D01*
X79850000Y-77202560D01*
X79602235Y-77251843D01*
X79392191Y-77392191D01*
X79251843Y-77602235D01*
X79250000Y-77611500D01*
X79248157Y-77602235D01*
X79107809Y-77392191D01*
X78897765Y-77251843D01*
X78650000Y-77202560D01*
X77150000Y-77202560D01*
X76902235Y-77251843D01*
X76712585Y-77378564D01*
X76597765Y-77301843D01*
X76350000Y-77252560D01*
X74350000Y-77252560D01*
X74102235Y-77301843D01*
X73934858Y-77413682D01*
X73935147Y-77083172D01*
X73990301Y-77138327D01*
X74223690Y-77235000D01*
X75064250Y-77235000D01*
X75223000Y-77076250D01*
X75223000Y-76127000D01*
X75477000Y-76127000D01*
X75477000Y-77076250D01*
X75635750Y-77235000D01*
X76476310Y-77235000D01*
X76709699Y-77138327D01*
X76888327Y-76959698D01*
X76985000Y-76726309D01*
X76985000Y-76285750D01*
X76826250Y-76127000D01*
X75477000Y-76127000D01*
X75223000Y-76127000D01*
X73873750Y-76127000D01*
X73715000Y-76285750D01*
X73715000Y-76539378D01*
X73422125Y-76245991D01*
X72986745Y-76065206D01*
X72515323Y-76064794D01*
X72079628Y-76244820D01*
X71745991Y-76577875D01*
X71565206Y-77013255D01*
X71564794Y-77484677D01*
X71744820Y-77920372D01*
X72077875Y-78254009D01*
X72513255Y-78434794D01*
X72984677Y-78435206D01*
X73420372Y-78255180D01*
X73702560Y-77973484D01*
X73702560Y-79100000D01*
X73751843Y-79347765D01*
X73853564Y-79500000D01*
X73751843Y-79652235D01*
X73702560Y-79900000D01*
X73702560Y-81026916D01*
X73422125Y-80745991D01*
X72986745Y-80565206D01*
X72515323Y-80564794D01*
X72079628Y-80744820D01*
X71745991Y-81077875D01*
X71565206Y-81513255D01*
X71564794Y-81984677D01*
X71744820Y-82420372D01*
X72077875Y-82754009D01*
X72513255Y-82934794D01*
X72984677Y-82935206D01*
X73420372Y-82755180D01*
X73702560Y-82473484D01*
X73702560Y-83323224D01*
X73157654Y-83107974D01*
X72268637Y-83122635D01*
X71515390Y-83434640D01*
X71343403Y-83763798D01*
X72750000Y-85170395D01*
X72764143Y-85156253D01*
X72943748Y-85335858D01*
X72929605Y-85350000D01*
X74336202Y-86756597D01*
X74665360Y-86584610D01*
X74992026Y-85757654D01*
X74977365Y-84868637D01*
X74720057Y-84247440D01*
X76350000Y-84247440D01*
X76597765Y-84198157D01*
X76807809Y-84057809D01*
X76948157Y-83847765D01*
X76960492Y-83785750D01*
X81615000Y-83785750D01*
X81615000Y-84251310D01*
X81711673Y-84484699D01*
X81890302Y-84663327D01*
X82123691Y-84760000D01*
X82714250Y-84760000D01*
X82873000Y-84601250D01*
X82873000Y-83627000D01*
X81773750Y-83627000D01*
X81615000Y-83785750D01*
X76960492Y-83785750D01*
X76968212Y-83746938D01*
X77193387Y-83702148D01*
X77439949Y-83537401D01*
X78154453Y-82822897D01*
X81615000Y-82822897D01*
X81615000Y-83214250D01*
X81773750Y-83373000D01*
X82873000Y-83373000D01*
X82873000Y-83353000D01*
X83127000Y-83353000D01*
X83127000Y-83373000D01*
X83147000Y-83373000D01*
X83147000Y-83627000D01*
X83127000Y-83627000D01*
X83127000Y-84601250D01*
X83285750Y-84760000D01*
X83876309Y-84760000D01*
X84109698Y-84663327D01*
X84251346Y-84521680D01*
X84292191Y-84582809D01*
X84502235Y-84723157D01*
X84750000Y-84772440D01*
X86250000Y-84772440D01*
X86497765Y-84723157D01*
X86707809Y-84582809D01*
X86848157Y-84372765D01*
X86897440Y-84125000D01*
X86897440Y-83302362D01*
X87122401Y-83077401D01*
X87287148Y-82830839D01*
X87345000Y-82540000D01*
X87345000Y-82354803D01*
X87518135Y-82181668D01*
X87593201Y-82212838D01*
X87965167Y-82213162D01*
X88308943Y-82071117D01*
X88342118Y-82038000D01*
X88647000Y-82038000D01*
X88937839Y-81980148D01*
X89030123Y-81918486D01*
X89050000Y-81922440D01*
X89327560Y-81922440D01*
X89327560Y-82200000D01*
X89365000Y-82388226D01*
X89365000Y-82854060D01*
X89422852Y-83144899D01*
X89587599Y-83391461D01*
X92213054Y-86016916D01*
X92459616Y-86181663D01*
X92750455Y-86239515D01*
X96441400Y-86239515D01*
X96441400Y-86714250D01*
X96600150Y-86873000D01*
X97813000Y-86873000D01*
X97813000Y-86853000D01*
X98067000Y-86853000D01*
X98067000Y-86873000D01*
X98087000Y-86873000D01*
X98087000Y-87127000D01*
X98067000Y-87127000D01*
X98067000Y-87147000D01*
X97813000Y-87147000D01*
X97813000Y-87127000D01*
X96600150Y-87127000D01*
X96441400Y-87285750D01*
X96441400Y-88142310D01*
X96502575Y-88290000D01*
X70710000Y-88290000D01*
X70710000Y-86936202D01*
X71343403Y-86936202D01*
X71515390Y-87265360D01*
X72342346Y-87592026D01*
X73231363Y-87577365D01*
X73984610Y-87265360D01*
X74156597Y-86936202D01*
X72750000Y-85529605D01*
X71343403Y-86936202D01*
X70710000Y-86936202D01*
X70710000Y-86283702D01*
X70834640Y-86584610D01*
X71163798Y-86756597D01*
X72570395Y-85350000D01*
X71163798Y-83943403D01*
X70834640Y-84115390D01*
X70710000Y-84430917D01*
X70710000Y-75236202D01*
X71343403Y-75236202D01*
X71515390Y-75565360D01*
X72342346Y-75892026D01*
X73231363Y-75877365D01*
X73715000Y-75677036D01*
X73715000Y-75714250D01*
X73873750Y-75873000D01*
X75223000Y-75873000D01*
X75223000Y-74923750D01*
X75477000Y-74923750D01*
X75477000Y-75873000D01*
X76826250Y-75873000D01*
X76913500Y-75785750D01*
X81615000Y-75785750D01*
X81615000Y-76251310D01*
X81711673Y-76484699D01*
X81890302Y-76663327D01*
X82123691Y-76760000D01*
X82714250Y-76760000D01*
X82873000Y-76601250D01*
X82873000Y-75627000D01*
X81773750Y-75627000D01*
X81615000Y-75785750D01*
X76913500Y-75785750D01*
X76985000Y-75714250D01*
X76985000Y-75273691D01*
X76888327Y-75040302D01*
X76709699Y-74861673D01*
X76476310Y-74765000D01*
X75635750Y-74765000D01*
X75477000Y-74923750D01*
X75223000Y-74923750D01*
X75064250Y-74765000D01*
X74712609Y-74765000D01*
X74719051Y-74748690D01*
X81615000Y-74748690D01*
X81615000Y-75214250D01*
X81773750Y-75373000D01*
X82873000Y-75373000D01*
X82873000Y-74398750D01*
X82714250Y-74240000D01*
X82123691Y-74240000D01*
X81890302Y-74336673D01*
X81711673Y-74515301D01*
X81615000Y-74748690D01*
X74719051Y-74748690D01*
X74992026Y-74057654D01*
X74977365Y-73168637D01*
X74665360Y-72415390D01*
X74336202Y-72243403D01*
X72929605Y-73650000D01*
X72943748Y-73664143D01*
X72764143Y-73843748D01*
X72750000Y-73829605D01*
X71343403Y-75236202D01*
X70710000Y-75236202D01*
X70710000Y-74583702D01*
X70834640Y-74884610D01*
X71163798Y-75056597D01*
X72570395Y-73650000D01*
X71163798Y-72243403D01*
X70834640Y-72415390D01*
X70710000Y-72730917D01*
X70710000Y-72063798D01*
X71343403Y-72063798D01*
X72750000Y-73470395D01*
X74156597Y-72063798D01*
X73984610Y-71734640D01*
X73157654Y-71407974D01*
X72268637Y-71422635D01*
X71515390Y-71734640D01*
X71343403Y-72063798D01*
X70710000Y-72063798D01*
X70710000Y-70710000D01*
X88687192Y-70710000D01*
X88656560Y-70864000D01*
X88656560Y-70864000D01*
G37*
X88656560Y-70864000D02*
X88656560Y-72896000D01*
X88705843Y-73143765D01*
X88846191Y-73353809D01*
X89056235Y-73494157D01*
X89304000Y-73543440D01*
X91336000Y-73543440D01*
X91583765Y-73494157D01*
X91793809Y-73353809D01*
X91898662Y-73196887D01*
X91995182Y-73286385D01*
X92013085Y-73293800D01*
X90237599Y-75069286D01*
X90072852Y-75315848D01*
X90015000Y-75606687D01*
X90015000Y-76152560D01*
X89975000Y-76152560D01*
X89727235Y-76201843D01*
X89684296Y-76230534D01*
X89596079Y-76017033D01*
X89333289Y-75753784D01*
X88989761Y-75611138D01*
X88617795Y-75610814D01*
X88274019Y-75752859D01*
X88010770Y-76015649D01*
X87868124Y-76359177D01*
X87867855Y-76668053D01*
X86897440Y-75697638D01*
X86897440Y-74875000D01*
X86848157Y-74627235D01*
X86707809Y-74417191D01*
X86497765Y-74276843D01*
X86250000Y-74227560D01*
X84750000Y-74227560D01*
X84502235Y-74276843D01*
X84292191Y-74417191D01*
X84251346Y-74478320D01*
X84109698Y-74336673D01*
X83876309Y-74240000D01*
X83285750Y-74240000D01*
X83127000Y-74398750D01*
X83127000Y-75373000D01*
X83147000Y-75373000D01*
X83147000Y-75627000D01*
X83127000Y-75627000D01*
X83127000Y-76601250D01*
X83285750Y-76760000D01*
X83876309Y-76760000D01*
X84109698Y-76663327D01*
X84251346Y-76521680D01*
X84292191Y-76582809D01*
X84502235Y-76723157D01*
X84750000Y-76772440D01*
X85822638Y-76772440D01*
X87465198Y-78415000D01*
X86700000Y-78415000D01*
X86409160Y-78472852D01*
X86162599Y-78637599D01*
X85287969Y-79512229D01*
X85271680Y-79501346D01*
X85413327Y-79359698D01*
X85510000Y-79126309D01*
X85510000Y-78535750D01*
X85351250Y-78377000D01*
X84377000Y-78377000D01*
X84377000Y-78397000D01*
X84123000Y-78397000D01*
X84123000Y-78377000D01*
X83148750Y-78377000D01*
X82990000Y-78535750D01*
X82990000Y-78815198D01*
X82137401Y-77962599D01*
X81997440Y-77869080D01*
X81997440Y-77850000D01*
X81948157Y-77602235D01*
X81807809Y-77392191D01*
X81780123Y-77373691D01*
X82990000Y-77373691D01*
X82990000Y-77964250D01*
X83148750Y-78123000D01*
X84123000Y-78123000D01*
X84123000Y-77023750D01*
X84377000Y-77023750D01*
X84377000Y-78123000D01*
X85351250Y-78123000D01*
X85510000Y-77964250D01*
X85510000Y-77373691D01*
X85413327Y-77140302D01*
X85234699Y-76961673D01*
X85001310Y-76865000D01*
X84535750Y-76865000D01*
X84377000Y-77023750D01*
X84123000Y-77023750D01*
X83964250Y-76865000D01*
X83498690Y-76865000D01*
X83265301Y-76961673D01*
X83086673Y-77140302D01*
X82990000Y-77373691D01*
X81780123Y-77373691D01*
X81597765Y-77251843D01*
X81350000Y-77202560D01*
X79850000Y-77202560D01*
X79602235Y-77251843D01*
X79392191Y-77392191D01*
X79251843Y-77602235D01*
X79250000Y-77611500D01*
X79248157Y-77602235D01*
X79107809Y-77392191D01*
X78897765Y-77251843D01*
X78650000Y-77202560D01*
X77150000Y-77202560D01*
X76902235Y-77251843D01*
X76712585Y-77378564D01*
X76597765Y-77301843D01*
X76350000Y-77252560D01*
X74350000Y-77252560D01*
X74102235Y-77301843D01*
X73934858Y-77413682D01*
X73935147Y-77083172D01*
X73990301Y-77138327D01*
X74223690Y-77235000D01*
X75064250Y-77235000D01*
X75223000Y-77076250D01*
X75223000Y-76127000D01*
X75477000Y-76127000D01*
X75477000Y-77076250D01*
X75635750Y-77235000D01*
X76476310Y-77235000D01*
X76709699Y-77138327D01*
X76888327Y-76959698D01*
X76985000Y-76726309D01*
X76985000Y-76285750D01*
X76826250Y-76127000D01*
X75477000Y-76127000D01*
X75223000Y-76127000D01*
X73873750Y-76127000D01*
X73715000Y-76285750D01*
X73715000Y-76539378D01*
X73422125Y-76245991D01*
X72986745Y-76065206D01*
X72515323Y-76064794D01*
X72079628Y-76244820D01*
X71745991Y-76577875D01*
X71565206Y-77013255D01*
X71564794Y-77484677D01*
X71744820Y-77920372D01*
X72077875Y-78254009D01*
X72513255Y-78434794D01*
X72984677Y-78435206D01*
X73420372Y-78255180D01*
X73702560Y-77973484D01*
X73702560Y-79100000D01*
X73751843Y-79347765D01*
X73853564Y-79500000D01*
X73751843Y-79652235D01*
X73702560Y-79900000D01*
X73702560Y-81026916D01*
X73422125Y-80745991D01*
X72986745Y-80565206D01*
X72515323Y-80564794D01*
X72079628Y-80744820D01*
X71745991Y-81077875D01*
X71565206Y-81513255D01*
X71564794Y-81984677D01*
X71744820Y-82420372D01*
X72077875Y-82754009D01*
X72513255Y-82934794D01*
X72984677Y-82935206D01*
X73420372Y-82755180D01*
X73702560Y-82473484D01*
X73702560Y-83323224D01*
X73157654Y-83107974D01*
X72268637Y-83122635D01*
X71515390Y-83434640D01*
X71343403Y-83763798D01*
X72750000Y-85170395D01*
X72764143Y-85156253D01*
X72943748Y-85335858D01*
X72929605Y-85350000D01*
X74336202Y-86756597D01*
X74665360Y-86584610D01*
X74992026Y-85757654D01*
X74977365Y-84868637D01*
X74720057Y-84247440D01*
X76350000Y-84247440D01*
X76597765Y-84198157D01*
X76807809Y-84057809D01*
X76948157Y-83847765D01*
X76960492Y-83785750D01*
X81615000Y-83785750D01*
X81615000Y-84251310D01*
X81711673Y-84484699D01*
X81890302Y-84663327D01*
X82123691Y-84760000D01*
X82714250Y-84760000D01*
X82873000Y-84601250D01*
X82873000Y-83627000D01*
X81773750Y-83627000D01*
X81615000Y-83785750D01*
X76960492Y-83785750D01*
X76968212Y-83746938D01*
X77193387Y-83702148D01*
X77439949Y-83537401D01*
X78154453Y-82822897D01*
X81615000Y-82822897D01*
X81615000Y-83214250D01*
X81773750Y-83373000D01*
X82873000Y-83373000D01*
X82873000Y-83353000D01*
X83127000Y-83353000D01*
X83127000Y-83373000D01*
X83147000Y-83373000D01*
X83147000Y-83627000D01*
X83127000Y-83627000D01*
X83127000Y-84601250D01*
X83285750Y-84760000D01*
X83876309Y-84760000D01*
X84109698Y-84663327D01*
X84251346Y-84521680D01*
X84292191Y-84582809D01*
X84502235Y-84723157D01*
X84750000Y-84772440D01*
X86250000Y-84772440D01*
X86497765Y-84723157D01*
X86707809Y-84582809D01*
X86848157Y-84372765D01*
X86897440Y-84125000D01*
X86897440Y-83302362D01*
X87122401Y-83077401D01*
X87287148Y-82830839D01*
X87345000Y-82540000D01*
X87345000Y-82354803D01*
X87518135Y-82181668D01*
X87593201Y-82212838D01*
X87965167Y-82213162D01*
X88308943Y-82071117D01*
X88342118Y-82038000D01*
X88647000Y-82038000D01*
X88937839Y-81980148D01*
X89030123Y-81918486D01*
X89050000Y-81922440D01*
X89327560Y-81922440D01*
X89327560Y-82200000D01*
X89365000Y-82388226D01*
X89365000Y-82854060D01*
X89422852Y-83144899D01*
X89587599Y-83391461D01*
X92213054Y-86016916D01*
X92459616Y-86181663D01*
X92750455Y-86239515D01*
X96441400Y-86239515D01*
X96441400Y-86714250D01*
X96600150Y-86873000D01*
X97813000Y-86873000D01*
X97813000Y-86853000D01*
X98067000Y-86853000D01*
X98067000Y-86873000D01*
X98087000Y-86873000D01*
X98087000Y-87127000D01*
X98067000Y-87127000D01*
X98067000Y-87147000D01*
X97813000Y-87147000D01*
X97813000Y-87127000D01*
X96600150Y-87127000D01*
X96441400Y-87285750D01*
X96441400Y-88142310D01*
X96502575Y-88290000D01*
X70710000Y-88290000D01*
X70710000Y-86936202D01*
X71343403Y-86936202D01*
X71515390Y-87265360D01*
X72342346Y-87592026D01*
X73231363Y-87577365D01*
X73984610Y-87265360D01*
X74156597Y-86936202D01*
X72750000Y-85529605D01*
X71343403Y-86936202D01*
X70710000Y-86936202D01*
X70710000Y-86283702D01*
X70834640Y-86584610D01*
X71163798Y-86756597D01*
X72570395Y-85350000D01*
X71163798Y-83943403D01*
X70834640Y-84115390D01*
X70710000Y-84430917D01*
X70710000Y-75236202D01*
X71343403Y-75236202D01*
X71515390Y-75565360D01*
X72342346Y-75892026D01*
X73231363Y-75877365D01*
X73715000Y-75677036D01*
X73715000Y-75714250D01*
X73873750Y-75873000D01*
X75223000Y-75873000D01*
X75223000Y-74923750D01*
X75477000Y-74923750D01*
X75477000Y-75873000D01*
X76826250Y-75873000D01*
X76913500Y-75785750D01*
X81615000Y-75785750D01*
X81615000Y-76251310D01*
X81711673Y-76484699D01*
X81890302Y-76663327D01*
X82123691Y-76760000D01*
X82714250Y-76760000D01*
X82873000Y-76601250D01*
X82873000Y-75627000D01*
X81773750Y-75627000D01*
X81615000Y-75785750D01*
X76913500Y-75785750D01*
X76985000Y-75714250D01*
X76985000Y-75273691D01*
X76888327Y-75040302D01*
X76709699Y-74861673D01*
X76476310Y-74765000D01*
X75635750Y-74765000D01*
X75477000Y-74923750D01*
X75223000Y-74923750D01*
X75064250Y-74765000D01*
X74712609Y-74765000D01*
X74719051Y-74748690D01*
X81615000Y-74748690D01*
X81615000Y-75214250D01*
X81773750Y-75373000D01*
X82873000Y-75373000D01*
X82873000Y-74398750D01*
X82714250Y-74240000D01*
X82123691Y-74240000D01*
X81890302Y-74336673D01*
X81711673Y-74515301D01*
X81615000Y-74748690D01*
X74719051Y-74748690D01*
X74992026Y-74057654D01*
X74977365Y-73168637D01*
X74665360Y-72415390D01*
X74336202Y-72243403D01*
X72929605Y-73650000D01*
X72943748Y-73664143D01*
X72764143Y-73843748D01*
X72750000Y-73829605D01*
X71343403Y-75236202D01*
X70710000Y-75236202D01*
X70710000Y-74583702D01*
X70834640Y-74884610D01*
X71163798Y-75056597D01*
X72570395Y-73650000D01*
X71163798Y-72243403D01*
X70834640Y-72415390D01*
X70710000Y-72730917D01*
X70710000Y-72063798D01*
X71343403Y-72063798D01*
X72750000Y-73470395D01*
X74156597Y-72063798D01*
X73984610Y-71734640D01*
X73157654Y-71407974D01*
X72268637Y-71422635D01*
X71515390Y-71734640D01*
X71343403Y-72063798D01*
X70710000Y-72063798D01*
X70710000Y-70710000D01*
X88687192Y-70710000D01*
X88656560Y-70864000D01*
G36*
X91077000Y-78573000D02*
X92423000Y-78573000D01*
X92423000Y-78553000D01*
X92677000Y-78553000D01*
X92677000Y-78573000D01*
X92697000Y-78573000D01*
X92697000Y-78827000D01*
X92677000Y-78827000D01*
X92677000Y-80173000D01*
X92697000Y-80173000D01*
X92697000Y-80427000D01*
X92677000Y-80427000D01*
X92677000Y-80447000D01*
X92423000Y-80447000D01*
X92423000Y-80427000D01*
X91077000Y-80427000D01*
X91077000Y-80447000D01*
X90823000Y-80447000D01*
X90823000Y-80427000D01*
X90803000Y-80427000D01*
X90803000Y-80173000D01*
X90823000Y-80173000D01*
X90823000Y-78827000D01*
X91077000Y-78827000D01*
X91077000Y-80173000D01*
X92423000Y-80173000D01*
X92423000Y-78827000D01*
X91077000Y-78827000D01*
X90823000Y-78827000D01*
X90803000Y-78827000D01*
X90803000Y-78573000D01*
X90823000Y-78573000D01*
X90823000Y-78553000D01*
X91077000Y-78553000D01*
X91077000Y-78573000D01*
X91077000Y-78573000D01*
G37*
X91077000Y-78573000D02*
X92423000Y-78573000D01*
X92423000Y-78553000D01*
X92677000Y-78553000D01*
X92677000Y-78573000D01*
X92697000Y-78573000D01*
X92697000Y-78827000D01*
X92677000Y-78827000D01*
X92677000Y-80173000D01*
X92697000Y-80173000D01*
X92697000Y-80427000D01*
X92677000Y-80427000D01*
X92677000Y-80447000D01*
X92423000Y-80447000D01*
X92423000Y-80427000D01*
X91077000Y-80427000D01*
X91077000Y-80447000D01*
X90823000Y-80447000D01*
X90823000Y-80427000D01*
X90803000Y-80427000D01*
X90803000Y-80173000D01*
X90823000Y-80173000D01*
X90823000Y-78827000D01*
X91077000Y-78827000D01*
X91077000Y-80173000D01*
X92423000Y-80173000D01*
X92423000Y-78827000D01*
X91077000Y-78827000D01*
X90823000Y-78827000D01*
X90803000Y-78827000D01*
X90803000Y-78573000D01*
X90823000Y-78573000D01*
X90823000Y-78553000D01*
X91077000Y-78553000D01*
X91077000Y-78573000D01*
G36*
X96441400Y-70737690D02*
X96441400Y-71594250D01*
X96600150Y-71753000D01*
X97813000Y-71753000D01*
X97813000Y-71733000D01*
X98067000Y-71733000D01*
X98067000Y-71753000D01*
X98087000Y-71753000D01*
X98087000Y-72007000D01*
X98067000Y-72007000D01*
X98067000Y-72027000D01*
X97813000Y-72027000D01*
X97813000Y-72007000D01*
X96600150Y-72007000D01*
X96441400Y-72165750D01*
X96441400Y-72631666D01*
X94296689Y-72631666D01*
X94465983Y-72262946D01*
X94347367Y-72007000D01*
X92987000Y-72007000D01*
X92987000Y-72027000D01*
X92733000Y-72027000D01*
X92733000Y-72007000D01*
X92713000Y-72007000D01*
X92713000Y-71753000D01*
X92733000Y-71753000D01*
X92733000Y-71733000D01*
X92987000Y-71733000D01*
X92987000Y-71753000D01*
X94347367Y-71753000D01*
X94465983Y-71497054D01*
X94197188Y-70911621D01*
X93979749Y-70710000D01*
X96452870Y-70710000D01*
X96441400Y-70737690D01*
X96441400Y-70737690D01*
G37*
X96441400Y-70737690D02*
X96441400Y-71594250D01*
X96600150Y-71753000D01*
X97813000Y-71753000D01*
X97813000Y-71733000D01*
X98067000Y-71733000D01*
X98067000Y-71753000D01*
X98087000Y-71753000D01*
X98087000Y-72007000D01*
X98067000Y-72007000D01*
X98067000Y-72027000D01*
X97813000Y-72027000D01*
X97813000Y-72007000D01*
X96600150Y-72007000D01*
X96441400Y-72165750D01*
X96441400Y-72631666D01*
X94296689Y-72631666D01*
X94465983Y-72262946D01*
X94347367Y-72007000D01*
X92987000Y-72007000D01*
X92987000Y-72027000D01*
X92733000Y-72027000D01*
X92733000Y-72007000D01*
X92713000Y-72007000D01*
X92713000Y-71753000D01*
X92733000Y-71753000D01*
X92733000Y-71733000D01*
X92987000Y-71733000D01*
X92987000Y-71753000D01*
X94347367Y-71753000D01*
X94465983Y-71497054D01*
X94197188Y-70911621D01*
X93979749Y-70710000D01*
X96452870Y-70710000D01*
X96441400Y-70737690D01*
M02*
