M48
;DRILL file {KiCad (2016-05-05 BZR 6775)-product} date Monday, 13 February 2017 'pmt' 19:39:45
;FORMAT={-:-/ absolute / inch / decimal}
FMAT,2
INCH,TZ
T1C0.016
T2C0.040
T3C0.098
T4C0.043
%
G90
G05
M72
T1
X3.2319Y-3.1714
X3.2567Y-3.2005
X3.2859Y-2.8799
X3.4559Y-3.1999
X3.4715Y-3.1427
X3.4747Y-3.1745
X3.4962Y-3.0136
X3.5807Y-3.0984
X3.6254Y-2.9935
X3.6417Y-3.2677
X3.6618Y-2.9825
X3.6759Y-2.9499
X3.7047Y-3.0308
X3.7259Y-3.2699
X3.7359Y-3.2999
X3.7589Y-3.1683
X3.7837Y-3.2442
X3.7962Y-2.9826
X3.7965Y-3.0182
X3.797Y-3.2814
T2
X3.5559Y-2.8299
X3.6559Y-2.8299
X3.8559Y-2.8299
X3.8559Y-3.4252
X3.9559Y-2.8299
X3.9559Y-3.4252
X4.0559Y-2.8299
X4.0559Y-3.4252
X4.1559Y-2.8299
X4.1559Y-3.4252
T3
X2.8642Y-2.8996
X2.8642Y-3.3602
T4
X2.8642Y-3.0413
X2.8642Y-3.2185
T0
M30
