G04 #@! TF.FileFunction,Copper,L2,Bot,Signal*
%FSLAX46Y46*%
G04 Gerber Fmt 4.6, Leading zero omitted, Abs format (unit mm)*
G04 Created by KiCad (PCBNEW (2016-05-05 BZR 6775)-product) date Monday, 13 February 2017 'pmt' 19:42:56*
%MOMM*%
%LPD*%
G01*
G04 APERTURE LIST*
%ADD10C,0.100000*%
%ADD11C,3.200000*%
%ADD12R,1.727200X2.032000*%
%ADD13O,1.727200X2.032000*%
%ADD14R,2.032000X2.032000*%
%ADD15O,2.032000X2.032000*%
%ADD16C,0.600000*%
%ADD17C,0.250000*%
%ADD18C,0.254000*%
G04 APERTURE END LIST*
D10*
D11*
X72750000Y-85350000D03*
X72750000Y-73650000D03*
D12*
X97940000Y-71880000D03*
D13*
X100480000Y-71880000D03*
X103020000Y-71880000D03*
X105560000Y-71880000D03*
D12*
X97940000Y-87000000D03*
D13*
X100480000Y-87000000D03*
X103020000Y-87000000D03*
X105560000Y-87000000D03*
D14*
X90320000Y-71880000D03*
D15*
X92860000Y-71880000D03*
D16*
X83462000Y-73150000D03*
X90950000Y-78700000D03*
X92084437Y-76034403D03*
X92500000Y-83000000D03*
X88175000Y-79825000D03*
X88802962Y-76545976D03*
X95475000Y-80475000D03*
X82090535Y-80554704D03*
X88258161Y-80633010D03*
X82719658Y-81292714D03*
X87780000Y-81278000D03*
X93368000Y-74928000D03*
X94099892Y-76983499D03*
X96431670Y-76661753D03*
X96423914Y-75758886D03*
X93009918Y-75756330D03*
X96107119Y-82401454D03*
X94638000Y-83056000D03*
X96443219Y-83346735D03*
X94892000Y-83818000D03*
D17*
X95475000Y-80475000D02*
X95475000Y-81058981D01*
X95475000Y-81058981D02*
X93533981Y-83000000D01*
X93533981Y-83000000D02*
X92924264Y-83000000D01*
X92924264Y-83000000D02*
X92500000Y-83000000D01*
X89314535Y-76034403D02*
X91660173Y-76034403D01*
X88802962Y-76545976D02*
X89314535Y-76034403D01*
X91660173Y-76034403D02*
X92084437Y-76034403D01*
X88802962Y-76545976D02*
X88179739Y-77169199D01*
X88179739Y-77169199D02*
X88179739Y-79820261D01*
X88179739Y-79820261D02*
X88175000Y-79825000D01*
X88175000Y-79825000D02*
X88723350Y-79825000D01*
X88723350Y-79825000D02*
X91898350Y-83000000D01*
X91898350Y-83000000D02*
X92500000Y-83000000D01*
X82168841Y-80633010D02*
X82090535Y-80554704D01*
X88258161Y-80633010D02*
X82168841Y-80633010D01*
X87780000Y-81278000D02*
X82734372Y-81278000D01*
X82734372Y-81278000D02*
X82719658Y-81292714D01*
X93368000Y-74928000D02*
X92240097Y-73800097D01*
X92240097Y-73800097D02*
X90828814Y-73800097D01*
X90828814Y-73800097D02*
X90320000Y-73291283D01*
X90320000Y-73291283D02*
X90320000Y-71880000D01*
X94399891Y-76683500D02*
X94099892Y-76983499D01*
X96431670Y-76661753D02*
X94421638Y-76661753D01*
X94421638Y-76661753D02*
X94399891Y-76683500D01*
X96421358Y-75756330D02*
X96423914Y-75758886D01*
X93009918Y-75756330D02*
X96421358Y-75756330D01*
X95807120Y-82701453D02*
X96107119Y-82401454D01*
X95452573Y-83056000D02*
X95807120Y-82701453D01*
X94638000Y-83056000D02*
X95452573Y-83056000D01*
X96143220Y-83646734D02*
X96443219Y-83346735D01*
X95971954Y-83818000D02*
X96143220Y-83646734D01*
X94892000Y-83818000D02*
X95971954Y-83818000D01*
D18*
G36*
X88656560Y-70864000D02*
X88656560Y-72896000D01*
X88705843Y-73143765D01*
X88846191Y-73353809D01*
X89056235Y-73494157D01*
X89304000Y-73543440D01*
X89610158Y-73543440D01*
X89617852Y-73582122D01*
X89782599Y-73828684D01*
X90291413Y-74337498D01*
X90537975Y-74502245D01*
X90828814Y-74560097D01*
X91925295Y-74560097D01*
X92404626Y-75039428D01*
X92322896Y-75121016D01*
X92271236Y-75099565D01*
X91899270Y-75099241D01*
X91555494Y-75241286D01*
X91522319Y-75274403D01*
X89314535Y-75274403D01*
X89071949Y-75322657D01*
X89023695Y-75332255D01*
X88777134Y-75497002D01*
X88663282Y-75610854D01*
X88617795Y-75610814D01*
X88274019Y-75752859D01*
X88010770Y-76015649D01*
X87868124Y-76359177D01*
X87868083Y-76406053D01*
X87642338Y-76631798D01*
X87477591Y-76878360D01*
X87419739Y-77169199D01*
X87419739Y-79257806D01*
X87382808Y-79294673D01*
X87240162Y-79638201D01*
X87239957Y-79873010D01*
X82731167Y-79873010D01*
X82620862Y-79762512D01*
X82277334Y-79619866D01*
X81905368Y-79619542D01*
X81561592Y-79761587D01*
X81298343Y-80024377D01*
X81155697Y-80367905D01*
X81155373Y-80739871D01*
X81297418Y-81083647D01*
X81560208Y-81346896D01*
X81784529Y-81440043D01*
X81784496Y-81477881D01*
X81926541Y-81821657D01*
X82189331Y-82084906D01*
X82532859Y-82227552D01*
X82904825Y-82227876D01*
X83248601Y-82085831D01*
X83296516Y-82038000D01*
X87217537Y-82038000D01*
X87249673Y-82070192D01*
X87593201Y-82212838D01*
X87965167Y-82213162D01*
X88308943Y-82071117D01*
X88572192Y-81808327D01*
X88714838Y-81464799D01*
X88714846Y-81455983D01*
X88787104Y-81426127D01*
X89018591Y-81195043D01*
X91360949Y-83537401D01*
X91607511Y-83702148D01*
X91898350Y-83760000D01*
X91937537Y-83760000D01*
X91969673Y-83792192D01*
X92313201Y-83934838D01*
X92685167Y-83935162D01*
X93028943Y-83793117D01*
X93062118Y-83760000D01*
X93533981Y-83760000D01*
X93824820Y-83702148D01*
X93907041Y-83647210D01*
X93957104Y-83697360D01*
X93956838Y-84003167D01*
X94098883Y-84346943D01*
X94361673Y-84610192D01*
X94705201Y-84752838D01*
X95077167Y-84753162D01*
X95420943Y-84611117D01*
X95454118Y-84578000D01*
X95971954Y-84578000D01*
X96262793Y-84520148D01*
X96509355Y-84355401D01*
X96582899Y-84281857D01*
X96628386Y-84281897D01*
X96972162Y-84139852D01*
X97235411Y-83877062D01*
X97378057Y-83533534D01*
X97378381Y-83161568D01*
X97236336Y-82817792D01*
X97031746Y-82612844D01*
X97041957Y-82588253D01*
X97042281Y-82216287D01*
X96900236Y-81872511D01*
X96637446Y-81609262D01*
X96293918Y-81466616D01*
X96099221Y-81466446D01*
X96177148Y-81349821D01*
X96235000Y-81058981D01*
X96235000Y-81037463D01*
X96267192Y-81005327D01*
X96409838Y-80661799D01*
X96410162Y-80289833D01*
X96268117Y-79946057D01*
X96005327Y-79682808D01*
X95661799Y-79540162D01*
X95289833Y-79539838D01*
X94946057Y-79681883D01*
X94682808Y-79944673D01*
X94540162Y-80288201D01*
X94539838Y-80660167D01*
X94615616Y-80843563D01*
X93219179Y-82240000D01*
X93062463Y-82240000D01*
X93030327Y-82207808D01*
X92686799Y-82065162D01*
X92314833Y-82064838D01*
X92118934Y-82145782D01*
X89260751Y-79287599D01*
X89014189Y-79122852D01*
X88939739Y-79108043D01*
X88939739Y-77484001D01*
X88942642Y-77481098D01*
X88988129Y-77481138D01*
X89331905Y-77339093D01*
X89595154Y-77076303D01*
X89712210Y-76794403D01*
X91521974Y-76794403D01*
X91554110Y-76826595D01*
X91897638Y-76969241D01*
X92269604Y-76969565D01*
X92613380Y-76827520D01*
X92771459Y-76669717D01*
X92823119Y-76691168D01*
X93195085Y-76691492D01*
X93211569Y-76684681D01*
X93165054Y-76796700D01*
X93164730Y-77168666D01*
X93306775Y-77512442D01*
X93569565Y-77775691D01*
X93913093Y-77918337D01*
X94285059Y-77918661D01*
X94628835Y-77776616D01*
X94892084Y-77513826D01*
X94930316Y-77421753D01*
X95869207Y-77421753D01*
X95901343Y-77453945D01*
X96244871Y-77596591D01*
X96616837Y-77596915D01*
X96960613Y-77454870D01*
X97223862Y-77192080D01*
X97366508Y-76848552D01*
X97366832Y-76476586D01*
X97252849Y-76200726D01*
X97358752Y-75945685D01*
X97359076Y-75573719D01*
X97217031Y-75229943D01*
X96954241Y-74966694D01*
X96610713Y-74824048D01*
X96238747Y-74823724D01*
X95894971Y-74965769D01*
X95864357Y-74996330D01*
X94302941Y-74996330D01*
X94303162Y-74742833D01*
X94161117Y-74399057D01*
X93898327Y-74135808D01*
X93554799Y-73993162D01*
X93507923Y-73993121D01*
X92987002Y-73472200D01*
X92987002Y-73366837D01*
X93242944Y-73485975D01*
X93724818Y-73286385D01*
X94197188Y-72848379D01*
X94465983Y-72262946D01*
X94420939Y-72165750D01*
X96441400Y-72165750D01*
X96441400Y-73022310D01*
X96538073Y-73255699D01*
X96716702Y-73434327D01*
X96950091Y-73531000D01*
X97654250Y-73531000D01*
X97813000Y-73372250D01*
X97813000Y-72007000D01*
X96600150Y-72007000D01*
X96441400Y-72165750D01*
X94420939Y-72165750D01*
X94347367Y-72007000D01*
X92987000Y-72007000D01*
X92987000Y-72027000D01*
X92733000Y-72027000D01*
X92733000Y-72007000D01*
X92713000Y-72007000D01*
X92713000Y-71753000D01*
X92733000Y-71753000D01*
X92733000Y-71733000D01*
X92987000Y-71733000D01*
X92987000Y-71753000D01*
X94347367Y-71753000D01*
X94465983Y-71497054D01*
X94197188Y-70911621D01*
X93979749Y-70710000D01*
X96452870Y-70710000D01*
X96441400Y-70737690D01*
X96441400Y-71594250D01*
X96600150Y-71753000D01*
X97813000Y-71753000D01*
X97813000Y-71733000D01*
X98067000Y-71733000D01*
X98067000Y-71753000D01*
X98087000Y-71753000D01*
X98087000Y-72007000D01*
X98067000Y-72007000D01*
X98067000Y-73372250D01*
X98225750Y-73531000D01*
X98929909Y-73531000D01*
X99163298Y-73434327D01*
X99341927Y-73255699D01*
X99405500Y-73102220D01*
X99420330Y-73124415D01*
X99906511Y-73449271D01*
X100480000Y-73563345D01*
X101053489Y-73449271D01*
X101539670Y-73124415D01*
X101750000Y-72809634D01*
X101960330Y-73124415D01*
X102446511Y-73449271D01*
X103020000Y-73563345D01*
X103593489Y-73449271D01*
X104079670Y-73124415D01*
X104290000Y-72809634D01*
X104500330Y-73124415D01*
X104986511Y-73449271D01*
X105560000Y-73563345D01*
X106133489Y-73449271D01*
X106619670Y-73124415D01*
X106944526Y-72638234D01*
X107058600Y-72064745D01*
X107058600Y-71695255D01*
X106944526Y-71121766D01*
X106669393Y-70710000D01*
X114290000Y-70710000D01*
X114290000Y-88290000D01*
X106551447Y-88290000D01*
X106619670Y-88244415D01*
X106944526Y-87758234D01*
X107058600Y-87184745D01*
X107058600Y-86815255D01*
X106944526Y-86241766D01*
X106619670Y-85755585D01*
X106133489Y-85430729D01*
X105560000Y-85316655D01*
X104986511Y-85430729D01*
X104500330Y-85755585D01*
X104290000Y-86070366D01*
X104079670Y-85755585D01*
X103593489Y-85430729D01*
X103020000Y-85316655D01*
X102446511Y-85430729D01*
X101960330Y-85755585D01*
X101750000Y-86070366D01*
X101539670Y-85755585D01*
X101053489Y-85430729D01*
X100480000Y-85316655D01*
X99906511Y-85430729D01*
X99420330Y-85755585D01*
X99405500Y-85777780D01*
X99341927Y-85624301D01*
X99163298Y-85445673D01*
X98929909Y-85349000D01*
X98225750Y-85349000D01*
X98067000Y-85507750D01*
X98067000Y-86873000D01*
X98087000Y-86873000D01*
X98087000Y-87127000D01*
X98067000Y-87127000D01*
X98067000Y-87147000D01*
X97813000Y-87147000D01*
X97813000Y-87127000D01*
X96600150Y-87127000D01*
X96441400Y-87285750D01*
X96441400Y-88142310D01*
X96502575Y-88290000D01*
X70710000Y-88290000D01*
X70710000Y-86936202D01*
X71343403Y-86936202D01*
X71515390Y-87265360D01*
X72342346Y-87592026D01*
X73231363Y-87577365D01*
X73984610Y-87265360D01*
X74156597Y-86936202D01*
X72750000Y-85529605D01*
X71343403Y-86936202D01*
X70710000Y-86936202D01*
X70710000Y-86283702D01*
X70834640Y-86584610D01*
X71163798Y-86756597D01*
X72570395Y-85350000D01*
X72929605Y-85350000D01*
X74336202Y-86756597D01*
X74665360Y-86584610D01*
X74952509Y-85857690D01*
X96441400Y-85857690D01*
X96441400Y-86714250D01*
X96600150Y-86873000D01*
X97813000Y-86873000D01*
X97813000Y-85507750D01*
X97654250Y-85349000D01*
X96950091Y-85349000D01*
X96716702Y-85445673D01*
X96538073Y-85624301D01*
X96441400Y-85857690D01*
X74952509Y-85857690D01*
X74992026Y-85757654D01*
X74977365Y-84868637D01*
X74665360Y-84115390D01*
X74336202Y-83943403D01*
X72929605Y-85350000D01*
X72570395Y-85350000D01*
X71163798Y-83943403D01*
X70834640Y-84115390D01*
X70710000Y-84430917D01*
X70710000Y-83763798D01*
X71343403Y-83763798D01*
X72750000Y-85170395D01*
X74156597Y-83763798D01*
X73984610Y-83434640D01*
X73157654Y-83107974D01*
X72268637Y-83122635D01*
X71515390Y-83434640D01*
X71343403Y-83763798D01*
X70710000Y-83763798D01*
X70710000Y-81984677D01*
X71564794Y-81984677D01*
X71744820Y-82420372D01*
X72077875Y-82754009D01*
X72513255Y-82934794D01*
X72984677Y-82935206D01*
X73420372Y-82755180D01*
X73754009Y-82422125D01*
X73934794Y-81986745D01*
X73935206Y-81515323D01*
X73755180Y-81079628D01*
X73422125Y-80745991D01*
X72986745Y-80565206D01*
X72515323Y-80564794D01*
X72079628Y-80744820D01*
X71745991Y-81077875D01*
X71565206Y-81513255D01*
X71564794Y-81984677D01*
X70710000Y-81984677D01*
X70710000Y-77484677D01*
X71564794Y-77484677D01*
X71744820Y-77920372D01*
X72077875Y-78254009D01*
X72513255Y-78434794D01*
X72984677Y-78435206D01*
X73420372Y-78255180D01*
X73754009Y-77922125D01*
X73934794Y-77486745D01*
X73935206Y-77015323D01*
X73755180Y-76579628D01*
X73422125Y-76245991D01*
X72986745Y-76065206D01*
X72515323Y-76064794D01*
X72079628Y-76244820D01*
X71745991Y-76577875D01*
X71565206Y-77013255D01*
X71564794Y-77484677D01*
X70710000Y-77484677D01*
X70710000Y-75236202D01*
X71343403Y-75236202D01*
X71515390Y-75565360D01*
X72342346Y-75892026D01*
X73231363Y-75877365D01*
X73984610Y-75565360D01*
X74156597Y-75236202D01*
X72750000Y-73829605D01*
X71343403Y-75236202D01*
X70710000Y-75236202D01*
X70710000Y-74583702D01*
X70834640Y-74884610D01*
X71163798Y-75056597D01*
X72570395Y-73650000D01*
X72929605Y-73650000D01*
X74336202Y-75056597D01*
X74665360Y-74884610D01*
X74992026Y-74057654D01*
X74977365Y-73168637D01*
X74665360Y-72415390D01*
X74336202Y-72243403D01*
X72929605Y-73650000D01*
X72570395Y-73650000D01*
X71163798Y-72243403D01*
X70834640Y-72415390D01*
X70710000Y-72730917D01*
X70710000Y-72063798D01*
X71343403Y-72063798D01*
X72750000Y-73470395D01*
X74156597Y-72063798D01*
X73984610Y-71734640D01*
X73157654Y-71407974D01*
X72268637Y-71422635D01*
X71515390Y-71734640D01*
X71343403Y-72063798D01*
X70710000Y-72063798D01*
X70710000Y-70710000D01*
X88687192Y-70710000D01*
X88656560Y-70864000D01*
X88656560Y-70864000D01*
G37*
X88656560Y-70864000D02*
X88656560Y-72896000D01*
X88705843Y-73143765D01*
X88846191Y-73353809D01*
X89056235Y-73494157D01*
X89304000Y-73543440D01*
X89610158Y-73543440D01*
X89617852Y-73582122D01*
X89782599Y-73828684D01*
X90291413Y-74337498D01*
X90537975Y-74502245D01*
X90828814Y-74560097D01*
X91925295Y-74560097D01*
X92404626Y-75039428D01*
X92322896Y-75121016D01*
X92271236Y-75099565D01*
X91899270Y-75099241D01*
X91555494Y-75241286D01*
X91522319Y-75274403D01*
X89314535Y-75274403D01*
X89071949Y-75322657D01*
X89023695Y-75332255D01*
X88777134Y-75497002D01*
X88663282Y-75610854D01*
X88617795Y-75610814D01*
X88274019Y-75752859D01*
X88010770Y-76015649D01*
X87868124Y-76359177D01*
X87868083Y-76406053D01*
X87642338Y-76631798D01*
X87477591Y-76878360D01*
X87419739Y-77169199D01*
X87419739Y-79257806D01*
X87382808Y-79294673D01*
X87240162Y-79638201D01*
X87239957Y-79873010D01*
X82731167Y-79873010D01*
X82620862Y-79762512D01*
X82277334Y-79619866D01*
X81905368Y-79619542D01*
X81561592Y-79761587D01*
X81298343Y-80024377D01*
X81155697Y-80367905D01*
X81155373Y-80739871D01*
X81297418Y-81083647D01*
X81560208Y-81346896D01*
X81784529Y-81440043D01*
X81784496Y-81477881D01*
X81926541Y-81821657D01*
X82189331Y-82084906D01*
X82532859Y-82227552D01*
X82904825Y-82227876D01*
X83248601Y-82085831D01*
X83296516Y-82038000D01*
X87217537Y-82038000D01*
X87249673Y-82070192D01*
X87593201Y-82212838D01*
X87965167Y-82213162D01*
X88308943Y-82071117D01*
X88572192Y-81808327D01*
X88714838Y-81464799D01*
X88714846Y-81455983D01*
X88787104Y-81426127D01*
X89018591Y-81195043D01*
X91360949Y-83537401D01*
X91607511Y-83702148D01*
X91898350Y-83760000D01*
X91937537Y-83760000D01*
X91969673Y-83792192D01*
X92313201Y-83934838D01*
X92685167Y-83935162D01*
X93028943Y-83793117D01*
X93062118Y-83760000D01*
X93533981Y-83760000D01*
X93824820Y-83702148D01*
X93907041Y-83647210D01*
X93957104Y-83697360D01*
X93956838Y-84003167D01*
X94098883Y-84346943D01*
X94361673Y-84610192D01*
X94705201Y-84752838D01*
X95077167Y-84753162D01*
X95420943Y-84611117D01*
X95454118Y-84578000D01*
X95971954Y-84578000D01*
X96262793Y-84520148D01*
X96509355Y-84355401D01*
X96582899Y-84281857D01*
X96628386Y-84281897D01*
X96972162Y-84139852D01*
X97235411Y-83877062D01*
X97378057Y-83533534D01*
X97378381Y-83161568D01*
X97236336Y-82817792D01*
X97031746Y-82612844D01*
X97041957Y-82588253D01*
X97042281Y-82216287D01*
X96900236Y-81872511D01*
X96637446Y-81609262D01*
X96293918Y-81466616D01*
X96099221Y-81466446D01*
X96177148Y-81349821D01*
X96235000Y-81058981D01*
X96235000Y-81037463D01*
X96267192Y-81005327D01*
X96409838Y-80661799D01*
X96410162Y-80289833D01*
X96268117Y-79946057D01*
X96005327Y-79682808D01*
X95661799Y-79540162D01*
X95289833Y-79539838D01*
X94946057Y-79681883D01*
X94682808Y-79944673D01*
X94540162Y-80288201D01*
X94539838Y-80660167D01*
X94615616Y-80843563D01*
X93219179Y-82240000D01*
X93062463Y-82240000D01*
X93030327Y-82207808D01*
X92686799Y-82065162D01*
X92314833Y-82064838D01*
X92118934Y-82145782D01*
X89260751Y-79287599D01*
X89014189Y-79122852D01*
X88939739Y-79108043D01*
X88939739Y-77484001D01*
X88942642Y-77481098D01*
X88988129Y-77481138D01*
X89331905Y-77339093D01*
X89595154Y-77076303D01*
X89712210Y-76794403D01*
X91521974Y-76794403D01*
X91554110Y-76826595D01*
X91897638Y-76969241D01*
X92269604Y-76969565D01*
X92613380Y-76827520D01*
X92771459Y-76669717D01*
X92823119Y-76691168D01*
X93195085Y-76691492D01*
X93211569Y-76684681D01*
X93165054Y-76796700D01*
X93164730Y-77168666D01*
X93306775Y-77512442D01*
X93569565Y-77775691D01*
X93913093Y-77918337D01*
X94285059Y-77918661D01*
X94628835Y-77776616D01*
X94892084Y-77513826D01*
X94930316Y-77421753D01*
X95869207Y-77421753D01*
X95901343Y-77453945D01*
X96244871Y-77596591D01*
X96616837Y-77596915D01*
X96960613Y-77454870D01*
X97223862Y-77192080D01*
X97366508Y-76848552D01*
X97366832Y-76476586D01*
X97252849Y-76200726D01*
X97358752Y-75945685D01*
X97359076Y-75573719D01*
X97217031Y-75229943D01*
X96954241Y-74966694D01*
X96610713Y-74824048D01*
X96238747Y-74823724D01*
X95894971Y-74965769D01*
X95864357Y-74996330D01*
X94302941Y-74996330D01*
X94303162Y-74742833D01*
X94161117Y-74399057D01*
X93898327Y-74135808D01*
X93554799Y-73993162D01*
X93507923Y-73993121D01*
X92987002Y-73472200D01*
X92987002Y-73366837D01*
X93242944Y-73485975D01*
X93724818Y-73286385D01*
X94197188Y-72848379D01*
X94465983Y-72262946D01*
X94420939Y-72165750D01*
X96441400Y-72165750D01*
X96441400Y-73022310D01*
X96538073Y-73255699D01*
X96716702Y-73434327D01*
X96950091Y-73531000D01*
X97654250Y-73531000D01*
X97813000Y-73372250D01*
X97813000Y-72007000D01*
X96600150Y-72007000D01*
X96441400Y-72165750D01*
X94420939Y-72165750D01*
X94347367Y-72007000D01*
X92987000Y-72007000D01*
X92987000Y-72027000D01*
X92733000Y-72027000D01*
X92733000Y-72007000D01*
X92713000Y-72007000D01*
X92713000Y-71753000D01*
X92733000Y-71753000D01*
X92733000Y-71733000D01*
X92987000Y-71733000D01*
X92987000Y-71753000D01*
X94347367Y-71753000D01*
X94465983Y-71497054D01*
X94197188Y-70911621D01*
X93979749Y-70710000D01*
X96452870Y-70710000D01*
X96441400Y-70737690D01*
X96441400Y-71594250D01*
X96600150Y-71753000D01*
X97813000Y-71753000D01*
X97813000Y-71733000D01*
X98067000Y-71733000D01*
X98067000Y-71753000D01*
X98087000Y-71753000D01*
X98087000Y-72007000D01*
X98067000Y-72007000D01*
X98067000Y-73372250D01*
X98225750Y-73531000D01*
X98929909Y-73531000D01*
X99163298Y-73434327D01*
X99341927Y-73255699D01*
X99405500Y-73102220D01*
X99420330Y-73124415D01*
X99906511Y-73449271D01*
X100480000Y-73563345D01*
X101053489Y-73449271D01*
X101539670Y-73124415D01*
X101750000Y-72809634D01*
X101960330Y-73124415D01*
X102446511Y-73449271D01*
X103020000Y-73563345D01*
X103593489Y-73449271D01*
X104079670Y-73124415D01*
X104290000Y-72809634D01*
X104500330Y-73124415D01*
X104986511Y-73449271D01*
X105560000Y-73563345D01*
X106133489Y-73449271D01*
X106619670Y-73124415D01*
X106944526Y-72638234D01*
X107058600Y-72064745D01*
X107058600Y-71695255D01*
X106944526Y-71121766D01*
X106669393Y-70710000D01*
X114290000Y-70710000D01*
X114290000Y-88290000D01*
X106551447Y-88290000D01*
X106619670Y-88244415D01*
X106944526Y-87758234D01*
X107058600Y-87184745D01*
X107058600Y-86815255D01*
X106944526Y-86241766D01*
X106619670Y-85755585D01*
X106133489Y-85430729D01*
X105560000Y-85316655D01*
X104986511Y-85430729D01*
X104500330Y-85755585D01*
X104290000Y-86070366D01*
X104079670Y-85755585D01*
X103593489Y-85430729D01*
X103020000Y-85316655D01*
X102446511Y-85430729D01*
X101960330Y-85755585D01*
X101750000Y-86070366D01*
X101539670Y-85755585D01*
X101053489Y-85430729D01*
X100480000Y-85316655D01*
X99906511Y-85430729D01*
X99420330Y-85755585D01*
X99405500Y-85777780D01*
X99341927Y-85624301D01*
X99163298Y-85445673D01*
X98929909Y-85349000D01*
X98225750Y-85349000D01*
X98067000Y-85507750D01*
X98067000Y-86873000D01*
X98087000Y-86873000D01*
X98087000Y-87127000D01*
X98067000Y-87127000D01*
X98067000Y-87147000D01*
X97813000Y-87147000D01*
X97813000Y-87127000D01*
X96600150Y-87127000D01*
X96441400Y-87285750D01*
X96441400Y-88142310D01*
X96502575Y-88290000D01*
X70710000Y-88290000D01*
X70710000Y-86936202D01*
X71343403Y-86936202D01*
X71515390Y-87265360D01*
X72342346Y-87592026D01*
X73231363Y-87577365D01*
X73984610Y-87265360D01*
X74156597Y-86936202D01*
X72750000Y-85529605D01*
X71343403Y-86936202D01*
X70710000Y-86936202D01*
X70710000Y-86283702D01*
X70834640Y-86584610D01*
X71163798Y-86756597D01*
X72570395Y-85350000D01*
X72929605Y-85350000D01*
X74336202Y-86756597D01*
X74665360Y-86584610D01*
X74952509Y-85857690D01*
X96441400Y-85857690D01*
X96441400Y-86714250D01*
X96600150Y-86873000D01*
X97813000Y-86873000D01*
X97813000Y-85507750D01*
X97654250Y-85349000D01*
X96950091Y-85349000D01*
X96716702Y-85445673D01*
X96538073Y-85624301D01*
X96441400Y-85857690D01*
X74952509Y-85857690D01*
X74992026Y-85757654D01*
X74977365Y-84868637D01*
X74665360Y-84115390D01*
X74336202Y-83943403D01*
X72929605Y-85350000D01*
X72570395Y-85350000D01*
X71163798Y-83943403D01*
X70834640Y-84115390D01*
X70710000Y-84430917D01*
X70710000Y-83763798D01*
X71343403Y-83763798D01*
X72750000Y-85170395D01*
X74156597Y-83763798D01*
X73984610Y-83434640D01*
X73157654Y-83107974D01*
X72268637Y-83122635D01*
X71515390Y-83434640D01*
X71343403Y-83763798D01*
X70710000Y-83763798D01*
X70710000Y-81984677D01*
X71564794Y-81984677D01*
X71744820Y-82420372D01*
X72077875Y-82754009D01*
X72513255Y-82934794D01*
X72984677Y-82935206D01*
X73420372Y-82755180D01*
X73754009Y-82422125D01*
X73934794Y-81986745D01*
X73935206Y-81515323D01*
X73755180Y-81079628D01*
X73422125Y-80745991D01*
X72986745Y-80565206D01*
X72515323Y-80564794D01*
X72079628Y-80744820D01*
X71745991Y-81077875D01*
X71565206Y-81513255D01*
X71564794Y-81984677D01*
X70710000Y-81984677D01*
X70710000Y-77484677D01*
X71564794Y-77484677D01*
X71744820Y-77920372D01*
X72077875Y-78254009D01*
X72513255Y-78434794D01*
X72984677Y-78435206D01*
X73420372Y-78255180D01*
X73754009Y-77922125D01*
X73934794Y-77486745D01*
X73935206Y-77015323D01*
X73755180Y-76579628D01*
X73422125Y-76245991D01*
X72986745Y-76065206D01*
X72515323Y-76064794D01*
X72079628Y-76244820D01*
X71745991Y-76577875D01*
X71565206Y-77013255D01*
X71564794Y-77484677D01*
X70710000Y-77484677D01*
X70710000Y-75236202D01*
X71343403Y-75236202D01*
X71515390Y-75565360D01*
X72342346Y-75892026D01*
X73231363Y-75877365D01*
X73984610Y-75565360D01*
X74156597Y-75236202D01*
X72750000Y-73829605D01*
X71343403Y-75236202D01*
X70710000Y-75236202D01*
X70710000Y-74583702D01*
X70834640Y-74884610D01*
X71163798Y-75056597D01*
X72570395Y-73650000D01*
X72929605Y-73650000D01*
X74336202Y-75056597D01*
X74665360Y-74884610D01*
X74992026Y-74057654D01*
X74977365Y-73168637D01*
X74665360Y-72415390D01*
X74336202Y-72243403D01*
X72929605Y-73650000D01*
X72570395Y-73650000D01*
X71163798Y-72243403D01*
X70834640Y-72415390D01*
X70710000Y-72730917D01*
X70710000Y-72063798D01*
X71343403Y-72063798D01*
X72750000Y-73470395D01*
X74156597Y-72063798D01*
X73984610Y-71734640D01*
X73157654Y-71407974D01*
X72268637Y-71422635D01*
X71515390Y-71734640D01*
X71343403Y-72063798D01*
X70710000Y-72063798D01*
X70710000Y-70710000D01*
X88687192Y-70710000D01*
X88656560Y-70864000D01*
M02*
